<svg width="20" height="20" viewBox="0 0 20 20" fill="none" xmlns="http://www.w3.org/2000/svg">
<g id="DiscordLogo">
<path id="Vector" d="M7.5 12.1875C8.01777 12.1875 8.4375 11.7678 8.4375 11.25C8.4375 10.7322 8.01777 10.3125 7.5 10.3125C6.98223 10.3125 6.5625 10.7322 6.5625 11.25C6.5625 11.7678 6.98223 12.1875 7.5 12.1875Z" fill="white"/>
<path id="Vector_2" d="M12.5 12.1875C13.0178 12.1875 13.4375 11.7678 13.4375 11.25C13.4375 10.7322 13.0178 10.3125 12.5 10.3125C11.9822 10.3125 11.5625 10.7322 11.5625 11.25C11.5625 11.7678 11.9822 12.1875 12.5 12.1875Z" fill="white"/>
<path id="Vector (Stroke)" fill-rule="evenodd" clip-rule="evenodd" d="M9.99555 6.24938C8.64066 6.23936 7.29249 6.44058 5.99958 6.84579C5.6702 6.94902 5.3195 6.76569 5.21627 6.43631C5.11304 6.10693 5.29637 5.75623 5.62575 5.653C7.04114 5.2094 8.51695 4.98889 10.0002 4.99938C11.4834 4.98889 12.9592 5.2094 14.3746 5.653C14.704 5.75623 14.8873 6.10693 14.7841 6.43631C14.6808 6.76569 14.3301 6.94902 14.0008 6.84579C12.7078 6.44058 11.3597 6.23936 10.0048 6.24938H9.99555Z" fill="white"/>
<path id="Vector (Stroke)_2" fill-rule="evenodd" clip-rule="evenodd" d="M5.21627 13.5633C5.3195 13.2339 5.6702 13.0505 5.99958 13.1538C7.29249 13.559 8.64066 13.7602 9.99555 13.7502H10.0048C11.3597 13.7602 12.7078 13.559 14.0008 13.1538C14.3301 13.0505 14.6808 13.2339 14.7841 13.5633C14.8873 13.8926 14.704 14.2433 14.3746 14.3466C12.9592 14.7902 11.4834 15.0107 10.0002 15.0002C8.51695 15.0107 7.04114 14.7902 5.62575 14.3466C5.29637 14.2433 5.11304 13.8926 5.21627 13.5633Z" fill="white"/>
<path id="Vector (Stroke)_3" fill-rule="evenodd" clip-rule="evenodd" d="M12.6377 3.00689C12.9067 2.8552 13.2221 2.8078 13.5238 2.8737C14.3473 3.05216 15.1535 3.30253 15.9332 3.6219C16.1087 3.68958 16.2663 3.79673 16.3939 3.93512C16.5228 4.07499 16.6174 4.24291 16.6702 4.4256L19.3176 13.2658C19.3866 13.4961 19.3882 13.7414 19.3222 13.9726C19.2561 14.2038 19.1252 14.4112 18.9449 14.5702L18.9417 14.5731C17.6495 15.6974 15.8987 16.5484 13.91 17.0359C13.6337 17.1063 13.3416 17.079 13.0831 16.9584C12.8258 16.8383 12.6178 16.6331 12.4941 16.3777L11.5515 14.5079C11.3961 14.1997 11.52 13.8239 11.8282 13.6685C12.1364 13.5131 12.5122 13.637 12.6676 13.9452L13.6129 15.8202L13.6136 15.8216C15.4498 15.3713 17.0087 14.5981 18.1212 13.6301L18.5314 14.1016L18.1179 13.6329C18.1191 13.6319 18.1199 13.6306 18.1203 13.6292C18.1207 13.6278 18.1207 13.6262 18.1202 13.6248L15.4727 4.78404C15.4705 4.78316 15.4683 4.78226 15.4661 4.78136C14.7518 4.48831 14.013 4.2587 13.2584 4.09521L13.2571 4.09491C13.2552 4.0945 13.2532 4.09479 13.2516 4.09574C13.2501 4.09658 13.2489 4.09791 13.2482 4.09949L12.6327 5.96178C12.5243 6.28952 12.1708 6.46738 11.8431 6.35905C11.5153 6.25072 11.3375 5.89722 11.4458 5.56948L12.0648 3.69685C12.1645 3.4043 12.3684 3.15869 12.6377 3.00689Z" fill="white"/>
<path id="Vector (Stroke)_4" fill-rule="evenodd" clip-rule="evenodd" d="M6.7479 4.09574C6.74623 4.09479 6.74427 4.0945 6.74239 4.09491L6.74103 4.09521C5.98645 4.2587 5.24772 4.48831 4.53341 4.78136C4.5312 4.78226 4.52899 4.78316 4.52678 4.78404L1.87929 13.6246C1.87886 13.626 1.8788 13.6278 1.87921 13.6292C1.87958 13.6305 1.88027 13.6317 1.88122 13.6326C2.99353 14.5994 4.55127 15.3717 6.38587 15.8216L6.38654 15.8202L7.33185 13.9452C7.48725 13.637 7.86308 13.5131 8.1713 13.6685C8.47952 13.8239 8.60341 14.1997 8.44802 14.5079L7.50536 16.3777C7.38169 16.6331 7.17369 16.8383 6.91634 16.9584C6.65792 17.079 6.36577 17.1063 6.08953 17.0359C4.10082 16.5484 2.34996 15.6974 1.0578 14.5731L1.05456 14.5702C0.874269 14.4112 0.743353 14.2038 0.677302 13.9726C0.611268 13.7415 0.61284 13.4963 0.681831 13.266C0.681813 13.2661 0.681849 13.266 0.681831 13.266L3.32927 4.42561C3.3821 4.24292 3.47669 4.075 3.60559 3.93512C3.73313 3.79673 3.89077 3.68958 4.06627 3.6219C4.84618 3.30244 5.65263 3.05203 6.47634 2.87355C6.77785 2.80787 7.093 2.85531 7.36183 3.00689C7.63106 3.15869 7.83497 3.4043 7.93466 3.69686L7.93651 3.70228L8.55367 5.56948C8.662 5.89721 8.48414 6.25072 8.1564 6.35905C7.82866 6.46738 7.47516 6.28952 7.36683 5.96178L6.75125 4.09948C6.75058 4.0979 6.74941 4.09658 6.7479 4.09574Z" fill="white"/>
<path id="Vector_3" d="M7.5 12.1875C8.01777 12.1875 8.4375 11.7678 8.4375 11.25C8.4375 10.7322 8.01777 10.3125 7.5 10.3125C6.98223 10.3125 6.5625 10.7322 6.5625 11.25C6.5625 11.7678 6.98223 12.1875 7.5 12.1875Z" fill="white"/>
<path id="Vector_4" d="M12.5 12.1875C13.0178 12.1875 13.4375 11.7678 13.4375 11.25C13.4375 10.7322 13.0178 10.3125 12.5 10.3125C11.9822 10.3125 11.5625 10.7322 11.5625 11.25C11.5625 11.7678 11.9822 12.1875 12.5 12.1875Z" fill="white"/>
<path id="Vector (Stroke)_5" fill-rule="evenodd" clip-rule="evenodd" d="M9.99555 6.24938C8.64066 6.23936 7.29249 6.44058 5.99958 6.84579C5.6702 6.94902 5.3195 6.76569 5.21627 6.43631C5.11304 6.10693 5.29637 5.75623 5.62575 5.653C7.04114 5.2094 8.51695 4.98889 10.0002 4.99938C11.4834 4.98889 12.9592 5.2094 14.3746 5.653C14.704 5.75623 14.8873 6.10693 14.7841 6.43631C14.6808 6.76569 14.3301 6.94902 14.0008 6.84579C12.7078 6.44058 11.3597 6.23936 10.0048 6.24938H9.99555Z" fill="white"/>
<path id="Vector (Stroke)_6" fill-rule="evenodd" clip-rule="evenodd" d="M5.21627 13.5633C5.3195 13.2339 5.6702 13.0505 5.99958 13.1538C7.29249 13.559 8.64066 13.7602 9.99555 13.7502H10.0048C11.3597 13.7602 12.7078 13.559 14.0008 13.1538C14.3301 13.0505 14.6808 13.2339 14.7841 13.5633C14.8873 13.8926 14.704 14.2433 14.3746 14.3466C12.9592 14.7902 11.4834 15.0107 10.0002 15.0002C8.51695 15.0107 7.04114 14.7902 5.62575 14.3466C5.29637 14.2433 5.11304 13.8926 5.21627 13.5633Z" fill="white"/>
<path id="Vector (Stroke)_7" fill-rule="evenodd" clip-rule="evenodd" d="M12.6377 3.00689C12.9067 2.8552 13.2221 2.8078 13.5238 2.8737C14.3473 3.05216 15.1535 3.30253 15.9332 3.6219C16.1087 3.68958 16.2663 3.79673 16.3939 3.93512C16.5228 4.07499 16.6174 4.24291 16.6702 4.4256L19.3176 13.2658C19.3866 13.4961 19.3882 13.7414 19.3222 13.9726C19.2561 14.2038 19.1252 14.4112 18.9449 14.5702L18.9417 14.5731C17.6495 15.6974 15.8987 16.5484 13.91 17.0359C13.6337 17.1063 13.3416 17.079 13.0831 16.9584C12.8258 16.8383 12.6178 16.6331 12.4941 16.3777L11.5515 14.5079C11.3961 14.1997 11.52 13.8239 11.8282 13.6685C12.1364 13.5131 12.5122 13.637 12.6676 13.9452L13.6129 15.8202L13.6136 15.8216C15.4498 15.3713 17.0087 14.5981 18.1212 13.6301L18.5314 14.1016L18.1179 13.6329C18.1191 13.6319 18.1199 13.6306 18.1203 13.6292C18.1207 13.6278 18.1207 13.6262 18.1202 13.6248L15.4727 4.78404C15.4705 4.78316 15.4683 4.78226 15.4661 4.78136C14.7518 4.48831 14.013 4.2587 13.2584 4.09521L13.2571 4.09491C13.2552 4.0945 13.2532 4.09479 13.2516 4.09574C13.2501 4.09658 13.2489 4.09791 13.2482 4.09949L12.6327 5.96178C12.5243 6.28952 12.1708 6.46738 11.8431 6.35905C11.5153 6.25072 11.3375 5.89722 11.4458 5.56948L12.0648 3.69685C12.1645 3.4043 12.3684 3.15869 12.6377 3.00689Z" fill="white"/>
<path id="Vector (Stroke)_8" fill-rule="evenodd" clip-rule="evenodd" d="M6.7479 4.09574C6.74623 4.09479 6.74427 4.0945 6.74239 4.09491L6.74103 4.09521C5.98645 4.2587 5.24772 4.48831 4.53341 4.78136C4.5312 4.78226 4.52899 4.78316 4.52678 4.78404L1.87929 13.6246C1.87886 13.626 1.8788 13.6278 1.87921 13.6292C1.87958 13.6305 1.88027 13.6317 1.88122 13.6326C2.99353 14.5994 4.55127 15.3717 6.38587 15.8216L6.38654 15.8202L7.33185 13.9452C7.48725 13.637 7.86308 13.5131 8.1713 13.6685C8.47952 13.8239 8.60341 14.1997 8.44802 14.5079L7.50536 16.3777C7.38169 16.6331 7.17369 16.8383 6.91634 16.9584C6.65792 17.079 6.36577 17.1063 6.08953 17.0359C4.10082 16.5484 2.34996 15.6974 1.0578 14.5731L1.05456 14.5702C0.874269 14.4112 0.743353 14.2038 0.677302 13.9726C0.611268 13.7415 0.61284 13.4963 0.681831 13.266C0.681813 13.2661 0.681849 13.266 0.681831 13.266L3.32927 4.42561C3.3821 4.24292 3.47669 4.075 3.60559 3.93512C3.73313 3.79673 3.89077 3.68958 4.06627 3.6219C4.84618 3.30244 5.65263 3.05203 6.47634 2.87355C6.77785 2.80787 7.093 2.85531 7.36183 3.00689C7.63106 3.15869 7.83497 3.4043 7.93466 3.69686L7.93651 3.70228L8.55367 5.56948C8.662 5.89721 8.48414 6.25072 8.1564 6.35905C7.82866 6.46738 7.47516 6.28952 7.36683 5.96178L6.75125 4.09948C6.75058 4.0979 6.74941 4.09658 6.7479 4.09574Z" fill="white"/>
</g>
</svg>
