<svg width="26" height="26" viewBox="26" fill="none" xmlns="http://www.w3.org/2000/svg">
<g id="Heart">
<path id="Vector" d="M23.0098 4.0122C22.4059 3.40833 21.689 2.92938 20.8999 2.60271C20.1108 2.27605 19.2651 2.10808 18.4111 2.1084C17.5571 2.10872 16.7116 2.27733 15.9228 2.60458C15.134 2.93184 14.4174 3.41133 13.8139 4.01565L13.0263 4.81292L12.2452 4.01738L12.2401 4.0123C11.6365 3.40871 10.9199 2.92992 10.1313 2.60326C9.34271 2.2766 8.49747 2.10848 7.64387 2.10848C6.79028 2.10848 5.94504 2.2766 5.15642 2.60326C4.3678 2.92992 3.65125 3.40871 3.04766 4.0123L2.69677 4.3632C1.47778 5.58218 0.792969 7.23548 0.792969 8.95938C0.792969 10.6833 1.47778 12.3366 2.69677 13.5556L11.9579 22.8166L13.0037 23.9124L13.0287 23.8874L13.0557 23.9144L14.0356 22.8806L23.3607 13.5554C24.5778 12.3355 25.2614 10.6825 25.2614 8.95923C25.2614 7.23593 24.5778 5.583 23.3607 4.36304L23.0098 4.0122ZM22.2114 12.4064L13.0287 21.5893L3.84574 12.4064C2.93151 11.4921 2.4179 10.2522 2.4179 8.95926C2.4179 7.66633 2.93151 6.42636 3.84574 5.51212L4.19669 5.16122C5.11048 4.24744 6.3497 3.73387 7.64199 3.73338C8.93428 3.7329 10.1739 4.24554 11.0884 5.15863L13.0228 7.12829L14.9664 5.16122C15.4191 4.70853 15.9565 4.34944 16.5479 4.10445C17.1394 3.85945 17.7733 3.73336 18.4135 3.73336C19.0537 3.73336 19.6877 3.85945 20.2791 4.10445C20.8706 4.34944 21.408 4.70853 21.8607 5.16122L22.2116 5.51207C23.1244 6.42706 23.6371 7.66679 23.637 8.95927C23.637 10.2518 23.1243 11.4914 22.2114 12.4064Z" fill="white"/>
</g>
</svg>
