<svg width="14" height="14" viewBox="0 0 14 14" fill="none" xmlns="http://www.w3.org/2000/svg">
<g id="Like">
<path id="Vector" d="M11.666 4.66699H8.39235L9.04743 2.70291C9.16527 2.34824 9.10577 1.95508 8.88702 1.65174C8.66827 1.34841 8.3136 1.16699 7.93968 1.16699H6.99935C6.8261 1.16699 6.66218 1.24399 6.55077 1.37699L3.8091 4.66699H2.33268C1.68927 4.66699 1.16602 5.19024 1.16602 5.83366V11.0837C1.16602 11.7271 1.68927 12.2503 2.33268 12.2503H10.0951C10.3324 12.2495 10.564 12.1767 10.7591 12.0415C10.9541 11.9063 11.1036 11.7151 11.1877 11.4932L12.7959 7.20508C12.8204 7.13958 12.8328 7.07023 12.8327 7.00033V5.83366C12.8327 5.19024 12.3094 4.66699 11.666 4.66699ZM2.33268 5.83366H3.49935V11.0837H2.33268V5.83366ZM11.666 6.89474L10.0951 11.0837H4.66602V5.46149L7.27235 2.33366H7.94085L7.02968 5.06541C7.0001 5.15309 6.99185 5.24657 7.00562 5.33807C7.01938 5.42958 7.05476 5.5165 7.10882 5.5916C7.16288 5.66671 7.23407 5.72784 7.31648 5.76994C7.39889 5.81203 7.49014 5.83388 7.58268 5.83366H11.666V6.89474Z" fill="white"/>
</g>
</svg>
